<svg role="img" viewBox="160 140 720 720" preserveAspectRatio="xMidYMid meet" xmlns="http://www.w3.org/2000/svg">
  <title>OwnAPI</title>
  <defs>
    <linearGradient id="ownapiOrange" x1="258" y1="214" x2="804" y2="766" gradientUnits="userSpaceOnUse">
      <stop offset="0" stop-color="#ff7a1a"/>
      <stop offset="0.5" stop-color="#ff5c12"/>
      <stop offset="1" stop-color="#f04a0b"/>
    </linearGradient>
  </defs>
  <g fill="none" stroke="url(#ownapiOrange)" stroke-linecap="round" stroke-linejoin="round">
    <path d="M242 476c-3-145 106-254 262-264 132-8 249 54 314 160" stroke-width="58"/>
    <path d="M812 414c58 132-7 287-148 354-159 76-354 20-441-126" stroke-width="58"/>
    <path d="M246 431c50-128 160-199 291-204" stroke-width="20"/>
    <path d="M246 627c92 123 289 166 436 72" stroke-width="22"/>
    <path d="M305 500c32-78 125-114 201-77 79 39 107 136 63 210-45 75-145 98-216 50-62-41-82-116-48-183z" stroke-width="72"/>
    <path d="M509 656l70-228 81 190 78-178c20-47 88-33 88 19v180" stroke-width="72"/>
  </g>
</svg>
